<svg width="36" height="60" viewBox="0 0 36 60" fill="none" xmlns="http://www.w3.org/2000/svg">
<path d="M31.034 19.564C31.024 19.543 31.024 19.521 31.013 19.5C31.001 19.48 30.982 19.469 30.969 19.45C29.958 17.716 28.762 16.103 27.404 14.641L29.552 12.494L30.966 13.908L35.208 9.665L30.966 5.423L26.723 9.665L28.138 11.08L25.99 13.227C24.528 11.869 22.916 10.672 21.181 9.661C21.162 9.648 21.151 9.629 21.131 9.617C21.11 9.605 21.088 9.606 21.067 9.595C17.974 7.813 14.499 6.626 10.794 6.191V5H12.294C13.673 5 14.794 3.879 14.794 2.5C14.794 1.121 13.672 0 12.293 0H3.29301C1.91401 0 0.793013 1.121 0.793013 2.5C0.793013 3.879 1.91401 5 3.29301 5H4.79301V6.156C3.71301 6.271 2.63501 6.447 1.56901 6.691C1.03101 6.814 0.694015 7.351 0.818015 7.889C0.941015 8.427 1.47801 8.765 2.01601 8.64C2.93601 8.429 3.86501 8.27 4.79601 8.163L5.86901 8.08C6.19701 8.055 6.49901 8.037 6.79301 8.023V10C6.79301 10.553 7.24001 11 7.79301 11C8.34601 11 8.79301 10.553 8.79301 10V8.03C12.554 8.203 16.098 9.213 19.249 10.875L18.263 12.582C17.987 13.061 18.151 13.672 18.629 13.948C18.786 14.039 18.958 14.082 19.128 14.082C19.474 14.082 19.81 13.903 19.995 13.582L20.978 11.879C24.107 13.864 26.765 16.522 28.75 19.651L27.047 20.634C26.57 20.91 26.406 21.521 26.683 22C26.869 22.321 27.204 22.5 27.55 22.5C27.72 22.5 27.892 22.457 28.049 22.366L29.756 21.38C31.441 24.576 32.454 28.178 32.605 31.999H30.63C30.077 31.999 29.63 32.446 29.63 32.999C29.63 33.552 30.077 33.999 30.63 33.999H32.605C32.454 37.82 31.441 41.422 29.756 44.618L28.049 43.632C27.571 43.356 26.959 43.518 26.683 43.998C26.407 44.477 26.571 45.088 27.049 45.364L28.752 46.347C26.767 49.476 24.109 52.134 20.98 54.119L19.997 52.416C19.72 51.936 19.107 51.773 18.631 52.05C18.152 52.326 17.988 52.938 18.265 53.416L19.251 55.123C16.1 56.785 12.556 57.795 8.79501 57.968V56C8.79501 55.447 8.34801 55 7.79501 55C7.24201 55 6.79501 55.447 6.79501 56V57.976C5.19801 57.921 3.59601 57.721 2.01901 57.359C1.48101 57.23 0.944013 57.572 0.821013 58.11C0.697013 58.648 1.03401 59.185 1.57201 59.308C3.56801 59.768 5.60701 60 7.63001 60C7.67901 60 7.72601 59.997 7.77501 59.996C7.78201 59.996 7.78701 60 7.79301 60C7.80101 60 7.80801 59.995 7.81601 59.995C12.623 59.962 17.133 58.664 21.035 56.422C21.066 56.408 21.099 56.401 21.129 56.383C21.149 56.371 21.16 56.352 21.179 56.339C25.218 53.985 28.593 50.614 30.952 46.578C30.971 46.551 30.995 46.53 31.012 46.5C31.024 46.479 31.023 46.457 31.033 46.436C33.317 42.476 34.63 37.89 34.63 33C34.63 28.11 33.317 23.524 31.034 19.564ZM30.965 8.251L32.379 9.665L30.965 11.08L29.55 9.665L30.965 8.251ZM6.79301 6.021V3H3.29301C3.01801 3 2.79301 2.775 2.79301 2.5C2.79301 2.225 3.01801 2 3.29301 2H12.293C12.568 2 12.793 2.225 12.793 2.5C12.793 2.775 12.568 3 12.293 3H8.79301V6.021C8.44501 6.007 8.11301 6 7.79301 6C7.76501 6 7.73301 6.002 7.70501 6.002C7.68001 6.002 7.65501 6 7.63001 6C7.46601 6 7.30201 6.011 7.13801 6.014C7.02201 6.017 6.91301 6.016 6.79301 6.021Z" fill="black"/>
</svg>
