<svg width="18" height="29" viewBox="0 0 18 29" fill="none" xmlns="http://www.w3.org/2000/svg">
<path d="M8.59231 0.0672913C4.9377 0.0672913 1.82148 2.6589 0.61158 6.28137C0.603055 6.30301 0.597153 6.324 0.590595 6.34695C0.244846 7.39885 0.0677827 8.49886 0.065979 9.60613C0.065979 10.3931 0.0659788 12.7997 1.56966 14.3034C1.82697 14.5519 2.23598 14.5484 2.48893 14.2954C2.74189 14.0425 2.74544 13.6335 2.49692 13.3762C1.95817 12.7773 1.61221 12.03 1.50408 11.2318C1.60966 11.2252 1.71393 11.2167 1.82344 11.2167C4.83343 11.2154 7.28077 13.9696 7.28077 17.3534C7.28077 17.6675 7.26568 17.9626 7.24142 18.2538C6.91492 18.6024 6.5676 18.9309 6.20137 19.2374C4.29139 20.8016 3.2328 23.1762 3.34614 25.6423C3.34614 26.0045 3.63974 26.2981 4.00191 26.2981C4.36409 26.2981 4.65768 26.0045 4.65768 25.6423C4.54487 23.563 5.43359 21.5552 7.04862 20.2408C9.36226 18.465 10.6711 15.6774 10.5596 12.763C10.5596 8.65788 7.47094 5.31345 3.67403 5.31345C3.23785 5.3146 2.80296 5.36075 2.37626 5.45117C3.51611 3.0315 5.91876 1.45745 8.59231 1.37883C12.5696 1.37883 15.8058 5.06885 15.8058 9.60482C15.8573 13.1782 14.3076 16.5872 11.5813 18.8977C11.4908 18.9758 11.3905 19.0597 11.2816 19.1509C9.97664 20.2355 7.26241 22.4953 6.62893 28.1933C6.59062 28.5523 6.84976 28.8748 7.20863 28.9146C7.23254 28.9181 7.25662 28.9203 7.28077 28.9212C7.61479 28.9209 7.89521 28.6695 7.93195 28.3376C8.50706 23.1635 10.8567 21.2087 12.1197 20.1588C12.2358 20.0617 12.3427 19.9725 12.4384 19.8899C15.4567 17.3331 17.1731 13.5601 17.1173 9.60482C17.1173 4.34554 13.2929 0.0672913 8.59231 0.0672913ZM3.67403 6.625C6.74763 6.625 9.24808 9.37923 9.24808 12.763C9.27783 14.0038 9.03144 15.2358 8.52673 16.3697C8.08671 12.7237 5.25247 9.90385 1.82476 9.90385C1.67327 9.90385 1.52769 9.915 1.38145 9.92549C1.38145 9.79958 1.38145 9.69007 1.38145 9.60482C1.38169 8.72784 1.50712 7.85539 1.75393 7.01387C2.36201 6.75872 3.0146 6.62655 3.67403 6.625Z" fill="black"/>
</svg>
