<svg width="19" height="36" viewBox="0 0 19 36" fill="none" xmlns="http://www.w3.org/2000/svg">
<path d="M16.031 0.730743H2.96903C1.52698 0.730743 0.353897 1.90383 0.353897 3.34588V32.8079C0.353897 34.2499 1.52698 35.423 2.96903 35.423H16.031C17.4731 35.423 18.6462 34.2499 18.6462 32.8079V3.34597C18.6462 1.90383 17.4731 0.730743 16.031 0.730743ZM17.3846 32.8079C17.3846 33.5542 16.7772 34.1616 16.031 34.1616H2.96903C2.22283 34.1616 1.61541 33.5542 1.61541 32.8079V3.34597C1.61541 2.59977 2.22283 1.99234 2.96903 1.99234H16.031C16.7773 1.99234 17.3847 2.59977 17.3847 3.34597V32.8079H17.3846Z" fill="black"/>
</svg>
